<svg width="512" height="512" viewBox="0 0 512 512" xmlns="http://www.w3.org/2000/svg">
  <defs>
    <linearGradient id="heartGradient" x1="0%" y1="0%" x2="100%" y2="100%">
      <stop offset="0%" style="stop-color:#ff69b4;stop-opacity:1" />
      <stop offset="100%" style="stop-color:#ff1493;stop-opacity:1" />
    </linearGradient>
  </defs>
  
  <!-- Background circle -->
  <circle cx="256" cy="256" r="240" fill="url(#heartGradient)" stroke="#ff1493" stroke-width="8"/>
  
  <!-- Heart shape -->
  <path d="M256 400c-60-60-120-120-160-200 0-80 80-120 160-80 80-40 160 0 160 80-40 80-100 140-160 200z" 
        fill="#ffffff" opacity="0.9"/>
  
  <!-- Sparkle effects -->
  <circle cx="120" cy="120" r="8" fill="#ffffff" opacity="0.8"/>
  <circle cx="392" cy="120" r="6" fill="#ffffff" opacity="0.6"/>
  <circle cx="120" cy="392" r="6" fill="#ffffff" opacity="0.6"/>
  <circle cx="392" cy="392" r="8" fill="#ffffff" opacity="0.8"/>
  
  <!-- Small decorative hearts -->
  <path d="M80 200c-15-15-30-30-40-50 0-20 20-30 40-20 20-10 40 0 40 20-10 20-25 35-40 50z" 
        fill="#ff69b4" opacity="0.7"/>
  <path d="M432 200c-15-15-30-30-40-50 0-20 20-30 40-20 20-10 40 0 40 20-10 20-25 35-40 50z" 
        fill="#ff69b4" opacity="0.7"/>
</svg> 